<?xml version="1.0" standalone="no"?>
<!DOCTYPE svg PUBLIC "-//W3C//DTD SVG 20010904//EN"
 "http://www.w3.org/TR/2001/REC-SVG-20010904/DTD/svg10.dtd">
<svg version="1.0" xmlns="http://www.w3.org/2000/svg"
 width="225.000000pt" height="225.000000pt" viewBox="0 0 225.000000 225.000000"
 preserveAspectRatio="xMidYMid meet">
<metadata>
Created by potrace 1.15, written by Peter Selinger 2001-2017
</metadata>
<g transform="translate(0.000000,225.000000) scale(0.100000,-0.100000)"
fill="#000000" stroke="none">
<path d="M612 2118 c-98 -130 -117 -219 -61 -283 44 -50 95 -63 154 -40 73 27
104 93 80 171 -14 47 -82 159 -115 189 -17 16 -20 14 -58 -37z"/>
<path d="M1083 2119 c-119 -157 -125 -267 -18 -319 52 -25 68 -25 120 0 109
53 96 186 -33 339 l-29 35 -40 -55z"/>
<path d="M1574 2148 c-40 -43 -95 -136 -109 -181 -24 -79 7 -145 80 -172 59
-23 110 -10 154 40 44 50 43 105 -4 194 -19 36 -50 83 -68 104 l-32 39 -21
-24z"/>
<path d="M537 1571 c-15 -10 -34 -27 -41 -37 -7 -10 -59 -151 -115 -312 l-102
-293 3 -389 3 -388 24 -26 c23 -24 31 -26 113 -26 81 0 91 2 113 25 22 21 25
33 25 90 l0 65 565 0 565 0 0 -65 c0 -57 3 -69 25 -90 22 -23 32 -25 113 -25
82 0 90 2 113 26 l24 26 3 388 3 389 -97 278 c-115 331 -117 337 -159 363 -31
19 -48 20 -591 20 -527 0 -561 -1 -587 -19z m1170 -316 c35 -104 66 -198 69
-207 5 -17 -30 -18 -650 -18 -361 0 -656 1 -656 3 0 3 126 382 135 405 3 10
113 12 521 10 l517 -3 64 -190z m-1013 -438 c55 -36 72 -131 33 -188 -60 -90
-181 -88 -237 4 -33 54 -21 138 24 176 47 39 127 43 180 8z m1025 3 c57 -30
78 -127 41 -187 -56 -92 -177 -94 -237 -4 -27 40 -29 90 -7 138 35 73 123 97
203 53z"/>
</g>
</svg>
